<svg xmlns="http://www.w3.org/2000/svg" viewBox="9742.553 -451.768 249.805 154.791">
  <defs>
    <style>
      .cls-1, .cls-15 {
        fill: #0066b3;
      }

      .cls-1 {
        opacity: 0.8;
      }

      .cls-2 {
        fill: #f2f2f2;
      }

      .cls-3 {
        fill: #221f1f;
      }

      .cls-4 {
        fill: #010101;
        opacity: 0.34;
      }

      .cls-5 {
        fill: #cfcfce;
      }

      .cls-6 {
        fill: #d7182a;
      }

      .cls-7 {
        fill: #f6f4f4;
      }

      .cls-8 {
        fill: #9ca1a0;
      }

      .cls-9 {
        fill: #dee2e2;
      }

      .cls-10 {
        fill: #3e3935;
        opacity: 0.16;
      }

      .cls-11 {
        fill: #12a2b0;
      }

      .cls-12 {
        fill: #16b0bf;
      }

      .cls-13 {
        fill: #fff;
      }

      .cls-13, .cls-14 {
        opacity: 0.3;
      }

      .cls-14 {
        fill: #c2c1c1;
      }

      .cls-16 {
        fill: #b5e3ef;
      }
    </style>
  </defs>
  <g id="Group_645" data-name="Group 645" transform="translate(8852 -609)">
    <g id="Group_628" data-name="Group 628" transform="translate(0 -129)">
      <rect id="Rectangle_556" data-name="Rectangle 556" class="cls-1" width="5.908" height="13.887" transform="translate(1091.754 369.796)"/>
      <rect id="Rectangle_557" data-name="Rectangle 557" class="cls-1" width="5.908" height="18.424" transform="translate(1100.281 365.289)"/>
      <rect id="Rectangle_558" data-name="Rectangle 558" class="cls-1" width="5.908" height="18.424" transform="translate(1125.923 365.289)"/>
      <rect id="Rectangle_559" data-name="Rectangle 559" class="cls-1" width="5.908" height="36.057" transform="translate(1108.838 347.626)"/>
      <rect id="Rectangle_560" data-name="Rectangle 560" class="cls-1" width="5.908" height="28.718" transform="translate(1117.365 354.965)"/>
      <rect id="Rectangle_561" data-name="Rectangle 561" class="cls-1" width="5.908" height="41.173" transform="translate(1134.449 342.509)"/>
    </g>
    <g id="Group_623" data-name="Group 623" transform="translate(890.553 171.765)">
      <path id="Path_786" data-name="Path 786" class="cls-2" d="M50.96,48.173l-9.867,4.294L12.833,64.8,3,69.125c-2.314,1-3.563,3.38-2.71,5.329l4.751,10.9,23.845,54.6c.853,1.949,3.441,2.68,5.725,1.675l.03-.03L82.6,120.652v.03a4.345,4.345,0,0,0,2.771-4.964c-.03-.122-.091-.244-.122-.365L61.406,60.75l-4.751-10.9C55.8,47.9,53.275,47.168,50.96,48.173Z" transform="translate(-0.017 -47.723)"/>
      <rect id="Rectangle_562" data-name="Rectangle 562" class="cls-3" width="44.188" height="0.761" transform="translate(10.851 27.752) rotate(-23.591)"/>
      <rect id="Rectangle_563" data-name="Rectangle 563" class="cls-3" width="30.758" height="0.579" transform="translate(12.3 31.017) rotate(-23.591)"/>
      <rect id="Rectangle_564" data-name="Rectangle 564" class="cls-3" width="30.758" height="0.64" transform="translate(13.722 34.314) rotate(-23.591)"/>
      <rect id="Rectangle_565" data-name="Rectangle 565" class="cls-3" width="41.873" height="0.7" transform="translate(15.221 37.759) rotate(-23.591)"/>
      <rect id="Rectangle_566" data-name="Rectangle 566" class="cls-3" width="27.104" height="0.548" transform="translate(16.698 41.129) rotate(-23.591)"/>
      <rect id="Rectangle_567" data-name="Rectangle 567" class="cls-3" width="35.631" height="0.64" transform="translate(18.005 44.156) rotate(-23.591)"/>
      <rect id="Rectangle_568" data-name="Rectangle 568" class="cls-3" width="40.503" height="0.64" transform="translate(19.308 47.107) rotate(-23.591)"/>
      <rect id="Rectangle_569" data-name="Rectangle 569" class="cls-3" width="31.641" height="0.67" transform="translate(20.582 50.027) rotate(-23.591)"/>
      <rect id="Rectangle_570" data-name="Rectangle 570" class="cls-3" width="38.889" height="0.609" transform="translate(21.903 53.02) rotate(-23.591)"/>
      <rect id="Rectangle_571" data-name="Rectangle 571" class="cls-3" width="41.873" height="0.609" transform="translate(23.207 56.025) rotate(-23.591)"/>
      <rect id="Rectangle_572" data-name="Rectangle 572" class="cls-3" width="27.104" height="0.64" transform="translate(24.661 59.34) rotate(-23.591)"/>
      <rect id="Rectangle_573" data-name="Rectangle 573" class="cls-3" width="27.104" height="0.64" transform="translate(32.545 77.437) rotate(-23.591)"/>
      <rect id="Rectangle_574" data-name="Rectangle 574" class="cls-3" width="35.631" height="0.7" transform="translate(25.98 62.395) rotate(-23.591)"/>
      <rect id="Rectangle_575" data-name="Rectangle 575" class="cls-3" width="40.503" height="0.64" transform="translate(27.295 65.373) rotate(-23.591)"/>
      <rect id="Rectangle_576" data-name="Rectangle 576" class="cls-3" width="31.641" height="0.487" transform="translate(28.593 68.35) rotate(-23.591)"/>
      <rect id="Rectangle_577" data-name="Rectangle 577" class="cls-3" width="38.889" height="0.579" transform="translate(29.861 71.299) rotate(-23.591)"/>
      <rect id="Rectangle_578" data-name="Rectangle 578" class="cls-3" width="38.889" height="0.579" transform="translate(33.9 81.322) rotate(-23.591)"/>
      <rect id="Rectangle_579" data-name="Rectangle 579" class="cls-3" width="38.889" height="0.518" transform="translate(31.153 74.249) rotate(-23.591)"/>
      <path id="Path_787" data-name="Path 787" class="cls-4" d="M136,65.9l7.7,13.186a1.85,1.85,0,0,0,2.528,1.218c1.979-.731,9.776-6.852,9.776-6.852Z" transform="translate(-94.589 -60.364)"/>
      <path id="Path_788" data-name="Path 788" class="cls-5" d="M134.9,63.4l5.451,12.486a1.85,1.85,0,0,0,2.528,1.218c1.979-.731,12.364-5.39,12.364-5.39Z" transform="translate(-93.823 -58.626)"/>
    </g>
    <circle id="Ellipse_133" data-name="Ellipse 133" class="cls-2" cx="67.15" cy="67.15" r="67.15" transform="translate(939.7 157.232)"/>
    <circle id="Ellipse_134" data-name="Ellipse 134" class="cls-6" cx="62.582" cy="62.582" r="62.582" transform="translate(944.268 161.8)"/>
    <circle id="Ellipse_135" data-name="Ellipse 135" class="cls-2" cx="43.975" cy="43.975" r="43.975" transform="translate(962.875 180.407)"/>
    <circle id="Ellipse_136" data-name="Ellipse 136" class="cls-6" cx="31.032" cy="31.032" r="31.032" transform="translate(975.818 193.349)"/>
    <circle id="Ellipse_137" data-name="Ellipse 137" class="cls-7" cx="14.8" cy="14.8" r="14.8" transform="translate(992.049 209.581)"/>
    <path id="Path_789" data-name="Path 789" class="cls-8" d="M475.7,51.136l-8.04-5.543a4.357,4.357,0,0,0-.335-3.015,4.22,4.22,0,0,0-1.553-1.705l.944-9.958c.122-1.37-.792-2.01-2.04-1.462l-20.982,9.562a5.506,5.506,0,0,0-2.741,3.472l-2.04,10.446L382.082,84.056c-2.162,1.1-4.263,1.249-3.167,3.411s2.467.548,4.629-.548l57.922-27.195,8.009,4.751a5.078,5.078,0,0,0,4.355.152l21.683-10.933A1.374,1.374,0,0,0,475.7,51.136Z" transform="translate(627.234 136.884)"/>
    <path id="Path_790" data-name="Path 790" class="cls-9" d="M467.3,42.578a4.221,4.221,0,0,0-1.553-1.705l.944-9.958c.122-1.37-.792-2.01-2.04-1.462l-20.982,9.562a5.506,5.506,0,0,0-2.741,3.472l-2.04,10.446-56.8,31.123c-2.1,1.066-4.172,1.249-3.228,3.259l88.589-44.462C467.392,42.761,467.362,42.67,467.3,42.578Z" transform="translate(627.224 136.884)"/>
    <path id="Path_791" data-name="Path 791" class="cls-10" d="M442.217,215.763v.487H380.305a1.706,1.706,0,0,1-1.705-1.614v-.183a1.655,1.655,0,0,1,1.705-1.553h61.851C442.187,213.814,442.217,214.788,442.217,215.763Z" transform="translate(627.245 9.167)"/>
    <g id="Group_624" data-name="Group 624" transform="translate(971.844 244.055)">
      <path id="Path_792" data-name="Path 792" class="cls-2" d="M323.976,296.827l-7.613-2.375-21.835-6.791-7.613-2.375a3.2,3.2,0,0,0-4.111,1.675l-2.619,8.436L267.059,337.6a3.156,3.156,0,0,0,2.406,3.715h.03l37.062,11.542v.03a3.185,3.185,0,0,0,3.959-1.462l.091-.274,13.125-42.208,2.619-8.436A3.129,3.129,0,0,0,323.976,296.827Z" transform="translate(-266.953 -285.104)"/>
      <rect id="Rectangle_580" data-name="Rectangle 580" class="cls-3" width="0.548" height="32.768" transform="matrix(0.297, -0.955, 0.955, 0.297, 21.1, 8.144)"/>
      <rect id="Rectangle_581" data-name="Rectangle 581" class="cls-3" width="0.426" height="22.81" transform="matrix(0.297, -0.955, 0.955, 0.297, 20.348, 10.539)"/>
      <rect id="Rectangle_582" data-name="Rectangle 582" class="cls-3" width="0.487" height="22.81" transform="matrix(0.297, -0.955, 0.955, 0.297, 19.539, 13.125)"/>
      <rect id="Rectangle_583" data-name="Rectangle 583" class="cls-3" width="0.518" height="31.063" transform="matrix(0.297, -0.955, 0.955, 0.297, 18.722, 15.826)"/>
      <rect id="Rectangle_584" data-name="Rectangle 584" class="cls-3" width="0.426" height="20.099" transform="matrix(0.297, -0.955, 0.955, 0.297, 17.923, 18.325)"/>
      <rect id="Rectangle_585" data-name="Rectangle 585" class="cls-3" width="0.487" height="26.434" transform="matrix(0.297, -0.955, 0.955, 0.297, 17.172, 20.73)"/>
      <rect id="Rectangle_586" data-name="Rectangle 586" class="cls-3" width="0.457" height="30.058" transform="matrix(0.297, -0.955, 0.955, 0.297, 16.488, 23.034)"/>
      <rect id="Rectangle_587" data-name="Rectangle 587" class="cls-3" width="0.487" height="23.48" transform="matrix(0.297, -0.955, 0.955, 0.297, 15.759, 25.285)"/>
      <rect id="Rectangle_588" data-name="Rectangle 588" class="cls-3" width="0.457" height="28.839" transform="matrix(0.297, -0.955, 0.955, 0.297, 15.068, 27.578)"/>
      <rect id="Rectangle_589" data-name="Rectangle 589" class="cls-3" width="0.457" height="31.063" transform="matrix(0.297, -0.955, 0.955, 0.297, 14.339, 29.903)"/>
      <rect id="Rectangle_590" data-name="Rectangle 590" class="cls-3" width="0.487" height="20.099" transform="matrix(0.297, -0.955, 0.955, 0.297, 13.551, 32.469)"/>
      <rect id="Rectangle_591" data-name="Rectangle 591" class="cls-3" width="0.487" height="20.099" transform="matrix(0.297, -0.955, 0.955, 0.297, 9.188, 46.462)"/>
      <rect id="Rectangle_592" data-name="Rectangle 592" class="cls-3" width="0.518" height="26.434" transform="matrix(0.297, -0.955, 0.955, 0.297, 12.801, 34.874)"/>
      <rect id="Rectangle_593" data-name="Rectangle 593" class="cls-3" width="0.457" height="30.058" transform="matrix(0.297, -0.955, 0.955, 0.297, 12.096, 37.139)"/>
      <rect id="Rectangle_594" data-name="Rectangle 594" class="cls-3" width="0.365" height="23.48" transform="matrix(0.297, -0.955, 0.955, 0.297, 11.414, 39.342)"/>
      <rect id="Rectangle_595" data-name="Rectangle 595" class="cls-3" width="0.426" height="28.839" transform="matrix(0.297, -0.955, 0.955, 0.297, 10.685, 41.654)"/>
      <rect id="Rectangle_596" data-name="Rectangle 596" class="cls-3" width="0.426" height="28.839" transform="matrix(0.297, -0.955, 0.955, 0.297, 8.086, 49.276)"/>
      <rect id="Rectangle_597" data-name="Rectangle 597" class="cls-3" width="0.365" height="28.839" transform="matrix(0.297, -0.955, 0.955, 0.297, 9.989, 43.88)"/>
      <path id="Path_793" data-name="Path 793" class="cls-4" d="M423.407,317.8l-2.1,11.146a1.361,1.361,0,0,0,.822,1.888c1.462.548,8.8.914,8.8.914Z" transform="translate(-374.211 -307.843)"/>
      <path id="Path_794" data-name="Path 794" class="cls-5" d="M421.921,315.9l-3.015,9.654a1.361,1.361,0,0,0,.822,1.888c1.462.548,9.562,2.954,9.562,2.954Z" transform="translate(-372.542 -306.521)"/>
    </g>
    <path id="Path_795" data-name="Path 795" class="cls-11" d="M603.1,345.4c-1.309,1.705-.731,4.355,1.31,5.938h0c2.04,1.553,4.751,1.462,6.06-.244l8.71-11.329c1.157-.883-6.852-6.517-7.37-5.664Z" transform="translate(471.599 -75.063)"/>
    <path id="Path_796" data-name="Path 796" class="cls-12" d="M559.5,365.084l.03-.03a.818.818,0,0,1,1.157-.213l10.232,7.857a.881.881,0,0,1,.091,1.188l-1.8,2.345h0L556.244,393.1c-3.289,4.294-8.557,5.786-11.724,3.35s-3.076-7.887.244-12.181l14.74-19.186Z" transform="translate(513.462 -96.393)"/>
    <path id="Path_797" data-name="Path 797" class="cls-2" d="M610.127,215.386a25.495,25.495,0,1,0,35.752-4.659A25.5,25.5,0,0,0,610.127,215.386Zm2.254,9.928a18.817,18.817,0,0,1,36.575,2.924,18.807,18.807,0,1,1-36.575-2.924Z" transform="translate(469.902 14.355)"/>
    <circle id="Ellipse_138" data-name="Ellipse 138" class="cls-13" cx="18.79" cy="18.79" r="18.79" transform="matrix(0.928, -0.373, 0.373, 0.928, 1075.778, 234.876)"/>
    <path id="Path_798" data-name="Path 798" class="cls-14" d="M633.154,234.439a17.709,17.709,0,0,0-2.954,5.725h0c22.018-6.974,36.087,2.771,36.453,3.045a18.8,18.8,0,0,0-33.5-8.771Z" transform="translate(452.265 -0.709)"/>
    <g id="Group_629" data-name="Group 629" transform="translate(0 -129)">
      <path id="Path_799" data-name="Path 799" class="cls-15" d="M114.144,388.7a15.076,15.076,0,1,0,.3,30.149,16.01,16.01,0,0,0,6.822-1.553l-7.492-13.521Z" transform="translate(821.627 15.904)"/>
      <g id="Group_626" data-name="Group 626" transform="translate(937.568 402.259)">
        <path id="Path_800" data-name="Path 800" class="cls-16" d="M154.918,381l-.518,16.293,15.653,4.507a17.053,17.053,0,0,0,.64-5.147A16.315,16.315,0,0,0,154.918,381Z" transform="translate(-154.4 -381)"/>
      </g>
      <path id="Path_801" data-name="Path 801" class="cls-15" d="M163.964,454.4,152.3,438.2l18.973,6.548" transform="translate(784.628 -18.521)"/>
      <path id="Path_802" data-name="Path 802" class="cls-15" d="M171.273,444.748,152.3,438.2l11.633,16.2A20.1,20.1,0,0,0,171.273,444.748Z" transform="translate(784.628 -18.521)"/>
    </g>
  </g>
</svg>
